<?xml version="1.0" encoding="UTF-8" standalone="no"?>
<!DOCTYPE svg PUBLIC "-//W3C//DTD SVG 1.1//EN"
 "http://www.w3.org/Graphics/SVG/1.1/DTD/svg11.dtd">
<!-- Generated by graphviz version 2.43.0 (0)
 -->
<!-- Title: G Pages: 1 -->
<svg width="595pt" height="202pt"
 viewBox="0.00 0.00 595.00 202.34" xmlns="http://www.w3.org/2000/svg" xmlns:xlink="http://www.w3.org/1999/xlink">
<g id="graph0" class="graph" transform="scale(1 1) rotate(0) translate(4 198.34)">
<title>G</title>
<polygon fill="lightgray" stroke="transparent" points="-4,4 -4,-198.34 591,-198.34 591,4 -4,4"/>
<!-- spontaneous -->
<g id="node1" class="node">
<title>spontaneous</title>
<polygon fill="blue" stroke="black" points="260,-132.34 173,-132.34 173,-96.34 260,-96.34 260,-132.34"/>
<text text-anchor="middle" x="216.5" y="-111.54" font-family="Helvetica,sans-Serif" font-size="11.00" fill="white">spontaneous</text>
</g>
<!-- nontraumatic -->
<g id="node2" class="node">
<title>nontraumatic</title>
<polygon fill="purple" stroke="black" points="582,-125.34 492,-125.34 492,-89.34 582,-89.34 582,-125.34"/>
<text text-anchor="middle" x="537" y="-104.54" font-family="Helvetica,sans-Serif" font-size="11.00" fill="white">nontraumatic</text>
</g>
<!-- spontaneous&#45;&#45;nontraumatic -->
<g id="edge1" class="edge">
<title>spontaneous&#45;&#45;nontraumatic</title>
<g id="a_edge1"><a xlink:href="http://snomed.info/id/43325004" xlink:title="e.g. 43325004 | Nontraumatic splenic rupture" target="_blank">
<path fill="none" stroke="black" stroke-width="3" d="M260.27,-113.91C300.27,-113.46 361.69,-112.63 415,-111.34 440.42,-110.73 468.85,-109.8 491.75,-108.99"/>
</a>
</g>
</g>
<!-- cryptogenic -->
<g id="node4" class="node">
<title>cryptogenic</title>
<polygon fill="blue" stroke="black" points="414,-102.34 333,-102.34 333,-66.34 414,-66.34 414,-102.34"/>
<text text-anchor="middle" x="373.5" y="-81.54" font-family="Helvetica,sans-Serif" font-size="11.00" fill="white">cryptogenic</text>
</g>
<!-- spontaneous&#45;&#45;cryptogenic -->
<g id="edge7" class="edge">
<title>spontaneous&#45;&#45;cryptogenic</title>
<g id="a_edge7"><a xlink:href="http://snomed.info/id/1204125007" xlink:title="e.g. 1204125007 | Cryptogenic non&#45;traumatic subarachnoid haemorrhage of brain" target="_blank">
<path fill="none" stroke="black" stroke-width="3" d="M260.26,-106.06C282.94,-101.68 310.61,-96.32 332.8,-92.02"/>
</a>
</g>
</g>
<!-- essential -->
<g id="node5" class="node">
<title>essential</title>
<polygon fill="blue" stroke="black" points="406.5,-48.34 340.5,-48.34 340.5,-12.34 406.5,-12.34 406.5,-48.34"/>
<text text-anchor="middle" x="373.5" y="-27.54" font-family="Helvetica,sans-Serif" font-size="11.00" fill="white">essential</text>
</g>
<!-- spontaneous&#45;&#45;essential -->
<g id="edge8" class="edge">
<title>spontaneous&#45;&#45;essential</title>
<g id="a_edge8"><a xlink:href="http://snomed.info/id/58895005" xlink:title="e.g. 58895005 | Central convulsion" target="_blank">
<path fill="none" stroke="black" stroke-width="3" d="M250.75,-96.32C277.26,-81.95 314.15,-61.96 340.36,-47.76"/>
</a>
</g>
</g>
<!-- pathological -->
<g id="node7" class="node">
<title>pathological</title>
<polygon fill="purple" stroke="black" points="415,-194.34 332,-194.34 332,-158.34 415,-158.34 415,-194.34"/>
<text text-anchor="middle" x="373.5" y="-173.54" font-family="Helvetica,sans-Serif" font-size="11.00" fill="white">pathological</text>
</g>
<!-- spontaneous&#45;&#45;pathological -->
<g id="edge6" class="edge">
<title>spontaneous&#45;&#45;pathological</title>
<g id="a_edge6"><a xlink:href="http://snomed.info/id/268029009" xlink:title="e.g. 268029009 | Pathological fracture" target="_blank">
<path fill="none" stroke="black" stroke-width="3" d="M260.26,-131.45C282.58,-140.37 309.73,-151.23 331.74,-160.04"/>
</a>
</g>
</g>
<!-- idiopathic -->
<g id="node3" class="node">
<title>idiopathic</title>
<polygon fill="blue" stroke="black" points="85.5,-67.34 15.5,-67.34 15.5,-31.34 85.5,-31.34 85.5,-67.34"/>
<text text-anchor="middle" x="50.5" y="-46.54" font-family="Helvetica,sans-Serif" font-size="11.00" fill="white">idiopathic</text>
</g>
<!-- idiopathic&#45;&#45;spontaneous -->
<g id="edge5" class="edge">
<title>idiopathic&#45;&#45;spontaneous</title>
<g id="a_edge5"><a xlink:href="http://snomed.info/id/5523002" xlink:title="e.g. 5523002 | Idiopathic myoglobinuria" target="_blank">
<path fill="none" stroke="black" stroke-width="3" d="M85.88,-62.97C111.24,-73.02 145.9,-86.75 173,-97.49"/>
</a>
</g>
</g>
<!-- idiopathic&#45;&#45;cryptogenic -->
<g id="edge2" class="edge">
<title>idiopathic&#45;&#45;cryptogenic</title>
<g id="a_edge2"><a xlink:href="http://snomed.info/id/16891111000119104" xlink:title="e.g. 16891111000119104 | Cryptogenic stroke" target="_blank">
<path fill="none" stroke="black" stroke-width="3" d="M85.55,-53.05C145.41,-59.58 269.19,-73.08 332.82,-80.01"/>
</a>
</g>
</g>
<!-- idiopathic&#45;&#45;essential -->
<g id="edge3" class="edge">
<title>idiopathic&#45;&#45;essential</title>
<g id="a_edge3"><a xlink:href="http://snomed.info/id/59621000" xlink:title="e.g. 59621000 | Essential hypertension" target="_blank">
<path fill="none" stroke="black" stroke-width="3" d="M85.55,-47.32C147.83,-43.64 279.3,-35.86 340.23,-32.25"/>
</a>
</g>
</g>
<!-- unknown origin -->
<g id="node6" class="node">
<title>unknown origin</title>
<polygon fill="blue" stroke="black" points="587,-48.34 487,-48.34 487,-12.34 587,-12.34 587,-48.34"/>
<text text-anchor="middle" x="537" y="-27.54" font-family="Helvetica,sans-Serif" font-size="11.00" fill="white">unknown origin</text>
</g>
<!-- idiopathic&#45;&#45;unknown origin -->
<g id="edge4" class="edge">
<title>idiopathic&#45;&#45;unknown origin</title>
<g id="a_edge4"><a xlink:href="http://snomed.info/id/734023003" xlink:title="e.g. 734023003 | Sporadic adult&#45;onset ataxia of unknown aetiology" target="_blank">
<path fill="none" stroke="black" stroke-width="3" d="M85.53,-39.64C149.83,-22.53 293.6,10.04 415,-3.34 438.96,-5.98 465.12,-11.48 486.96,-16.83"/>
</a>
</g>
</g>
<!-- cryptogenic&#45;&#45;nontraumatic -->
<g id="edge10" class="edge">
<title>cryptogenic&#45;&#45;nontraumatic</title>
<g id="a_edge10"><a xlink:href="http://snomed.info/id/1204125007" xlink:title="e.g. 1204125007 | Cryptogenic non&#45;traumatic subarachnoid haemorrhage of brain" target="_blank">
<path fill="none" stroke="black" stroke-width="3" d="M414.01,-89.97C437.54,-93.32 467.46,-97.58 491.78,-101.04"/>
</a>
</g>
</g>
<!-- cryptogenic&#45;&#45;unknown origin -->
<g id="edge9" class="edge">
<title>cryptogenic&#45;&#45;unknown origin</title>
<g id="a_edge9"><a xlink:href="http://snomed.info/id/54690008" xlink:title="e.g. 54690008 | Unknown (origin)" target="_blank">
<path fill="none" stroke="black" stroke-width="3" d="M414.01,-71.13C435.95,-63.79 463.45,-54.6 486.78,-46.8"/>
</a>
</g>
</g>
<!-- unknown cause -->
<g id="node8" class="node">
<title>unknown cause</title>
<polygon fill="orange" stroke="black" points="101,-186.34 0,-186.34 0,-150.34 101,-150.34 101,-186.34"/>
<text text-anchor="middle" x="50.5" y="-165.54" font-family="Helvetica,sans-Serif" font-size="11.00">unknown cause</text>
</g>
<!-- unexplained -->
<g id="node9" class="node">
<title>unexplained</title>
<polygon fill="orange" stroke="black" points="258,-186.34 175,-186.34 175,-150.34 258,-150.34 258,-186.34"/>
<text text-anchor="middle" x="216.5" y="-165.54" font-family="Helvetica,sans-Serif" font-size="11.00">unexplained</text>
</g>
<!-- unknown cause&#45;&#45;unexplained -->
<g id="edge11" class="edge">
<title>unknown cause&#45;&#45;unexplained</title>
<g id="a_edge11"><a xlink:href="http://snomed.info/id/314212008" xlink:title="e.g. 314212008 | Abdominal pain &#45; cause unknown" target="_blank">
<path fill="none" stroke="black" stroke-width="3" d="M101.15,-168.34C124.72,-168.34 152.53,-168.34 174.83,-168.34"/>
</a>
</g>
</g>
</g>
</svg>
